HIERARCHY
ROOT Hips
{
	OFFSET	0.00	0.00	0.00
	CHANNELS 6 Xposition Yposition Zposition Zrotation Xrotation Yrotation
	JOINT Spine
	{
		OFFSET	 0.00	0.01	 0.00
		CHANNELS 3 Zrotation Xrotation Yrotation
		JOINT Spine1
		{
			OFFSET	 0.00	 2.45913012437421	 0.00
			CHANNELS 3 Zrotation Xrotation Yrotation
            JOINT Neck
            {
                OFFSET	 0.00	 2.48462964506057	 0.00
                CHANNELS 3 Zrotation Xrotation Yrotation
                JOINT Head
                {
                    OFFSET	 0.00	 0.927524780924562	 0.00
                    CHANNELS 3 Zrotation Xrotation Yrotation
                    End Site 
                    {
                        OFFSET	 0.00	 1.14999962169752	 0.00
                    }
                }
            }
			JOINT LeftShoulder
			{
				OFFSET	 0.00	 2.48462964506057	 0.00
				CHANNELS 3 Zrotation Xrotation Yrotation
				JOINT LeftUpArm
				{
					OFFSET	 0.00	 1.24881979654096	 0.00
					CHANNELS 3 Zrotation Xrotation Yrotation
					JOINT LeftForeArm
					{
						OFFSET	 0.00	2.59758046908119	 0.00
						CHANNELS 3 Zrotation Xrotation Yrotation
						JOINT LeftHand
						{
							OFFSET	 0.00	2.45542024364365	 0.00
							CHANNELS 3 Zrotation Xrotation Yrotation
							JOINT LeftHandThumb 
							{
								OFFSET	 0.00	0.00	 0.00
								CHANNELS 3 Zrotation Xrotation Yrotation
								End Site
								{
									OFFSET	 0.00	0.00	1.00000003353624
								}
							}
							JOINT L_Wrist_End 
							{
								OFFSET	 0.00	0.99999967115358	 0.00
								CHANNELS 3 Zrotation Xrotation Yrotation
								End Site 
								{
									OFFSET	 0.00	 0.00	 0.00
								}
							}
						}
					}
				}
			}
			JOINT RightShoulder
			{
				OFFSET	 0.00	 2.48462964506057	 0.00
				CHANNELS 3 Zrotation Xrotation Yrotation
				JOINT RightUpArm
				{
					OFFSET	 0.00	 1.24881979654096	 0.00
					CHANNELS 3 Zrotation Xrotation Yrotation
					JOINT RightForeArm
					{
						OFFSET	 0.00	2.59758046908119	 0.00
						CHANNELS 3 Zrotation Xrotation Yrotation
						JOINT RightHand
						{
							OFFSET	 0.00	2.45542024364365	 0.00
							CHANNELS 3 Zrotation Xrotation Yrotation
							JOINT RightHandThumb 
							{
								OFFSET	 0.00	0.00	 0.00
								CHANNELS 3 Zrotation Xrotation Yrotation
								End Site
								{
									OFFSET	 0.00	0.00	1.00000003353624
								}
							}
							JOINT R_Wrist_End 
							{
								OFFSET	 0.00	0.99999967115358	 0.00
								CHANNELS 3 Zrotation Xrotation Yrotation
								End Site 
								{
									OFFSET	 0.00	 0.00	 0.00
								}
							}
						}
					}
				}
			}
		}
	}
	JOINT LeftUpLeg
	{
		OFFSET	 1.2719394002717	 0.00	 0.00
		CHANNELS 3 Zrotation Xrotation Yrotation
		JOINT LeftLowLeg
		{
			OFFSET	 0.00	-4.3429100912261	 0.00
			CHANNELS 3 Zrotation Xrotation Yrotation
			JOINT LeftFoot
			{
				OFFSET	 0.00	-4.48767017425826	 0.00
				CHANNELS 3 Zrotation Xrotation Yrotation
				JOINT LeftToeBase
                {
                    OFFSET	 0.00	0.00	 1.51507020887566
                    CHANNELS 3 Zrotation Xrotation Yrotation
                    End Site 
                    {
                        OFFSET	 0.00	0.00	 0.75000010571191
                    }
                }
			}
		}
	}
	JOINT RightUpLeg
	{
		OFFSET	 -1.2719393604653	 0.00	 0.00
		CHANNELS 3 Zrotation Xrotation Yrotation
		JOINT RightLowLeg
		{
			OFFSET	 0.00	-4.3429100912261	 0.00
			CHANNELS 3 Zrotation Xrotation Yrotation
			JOINT RightFoot
			{
				OFFSET	 0.00	-4.48767017425826	 0.00
				CHANNELS 3 Zrotation Xrotation Yrotation
				JOINT RightToeBase
                {
                    OFFSET	 0.00	0.00	 1.51507020887566
                    CHANNELS 3 Zrotation Xrotation Yrotation
                    End Site 
                    {
                        OFFSET	 0.00	0.00	 0.749999965609858
                    }
                }   
			}
		}
	}
}
MOTION 
Frames:	6 
Frame Time: 0.02 
  3.272049865722656 5.16114013671875 5.139390258789063 105.293 79.3203 264.53 -1.81525 20.2169 -0.343067 -7.09529 8.58497 -2.98768 -3.69042 25.3791 9.74976 12.7196 -65.7762 18.0704 -100.3147 -2.2973 3.81613 -24.0091 43.2559 -28.9103 0.0 123.797 0.0 29.1875 -4.21621 13.7591 0.0 0.0 0.0 0.0 0.0 0.0 107.1419 -0.649079 -9.99149 4.60749 50.0552 30.6367 0.0 110.399 0.0 -17.2899 3.95484 -4.0255 0.0 0.0 0.0 0.0 0.0 0.0 -62.8457 -72.0583 -60.4155 0.0 110.316 0.0 5.33178 -19.327202 -4.21262 0.0 -35.5043 0.0 -12.2044 -23.4117 -19.1428 0.0 132.84 0.0 8.0161 -18.327599 12.0421 0.0 -52.2759 0.0 
  3.2936199951171874 5.145750122070313 5.147230224609375 106.189 79.239 263.933 -2.36508 20.1972 -0.0892701 -6.82987 8.75968 -2.99885 -3.64542 25.0446 9.59737 12.6744 -65.9806 17.6679 -100.3219 -1.78206 4.07932 -25.0011 42.5141 -26.7732 0.0 122.041 0.0 29.1283 -4.59733 14.4244 0.0 0.0 0.0 0.0 0.0 0.0 107.7773 -0.933327 -11.1705 4.73971 47.7235 29.6816 0.0 108.533 0.0 -16.8596 5.06626 -4.32837 0.0 0.0 0.0 0.0 0.0 0.0 -63.7716 -71.551 -61.1825 0.0 110.212 0.0 5.51381 -19.414902 -3.72811 0.0 -35.5359 0.0 -12.6597 -23.1792 -19.2738 0.0 132.615 0.0 7.98272 -18.208302 12.4692 0.0 -52.7949 0.0 
  3.3178201293945313 5.12572998046875 5.163400268554687 107.218 79.0167 263.197 -2.77748 19.9366 -0.0162879 -7.20038 9.2465 -3.1144 -3.22925 24.3733 9.28248 12.7822 -65.7799 17.6315 -99.90341 -1.42699 4.34556 -26.0328 41.8117 -24.4619 0.0 120.182 0.0 29.7727 -5.24452 14.0908 0.0 0.0 0.0 0.0 0.0 0.0 108.7839 -1.17094 -12.4558 4.86864 45.6635 28.6882 0.0 106.952 0.0 -17.2104 5.21903 -5.00446 0.0 0.0 0.0 0.0 0.0 0.0 -64.5476 -70.9457 -61.7362 0.0 109.972 0.0 5.56626 -19.4945 -3.34438 0.0 -35.4681 0.0 -13.258 -22.9016 -19.4402 0.0 132.241 0.0 7.62448 -18.1459 12.6037 0.0 -53.6622 0.0 
  3.3433099365234376 5.096579895019532 5.189190063476563 107.183 78.7367 263.617 -3.41793 19.814 0.0748266 -7.36871 9.54167 -3.34114 -2.91256 24.1954 9.04365 13.0509 -65.8064 17.8195 -99.63603 -0.965279 4.79497 -27.1013 41.0157 -21.7042 0.0 118.059 0.0 30.8987 -6.27744 12.9909 0.0 0.0 0.0 0.0 0.0 0.0 109.8183 -1.41292 -14.0366 5.38361 43.4323 27.5108 0.0 105.52 0.0 -17.3429 5.81389 -5.43192 0.0 0.0 0.0 0.0 0.0 0.0 -64.6158 -70.0867 -61.517 0.0 109.624 0.0 5.54027 -19.547298 -3.04572 0.0 -35.361 0.0 -13.9181 -22.2155 -19.6814 0.0 131.608 0.0 6.323 -18.189098 12.1947 0.0 -56.4548 0.0 
  3.3712200927734375 5.064190063476563 5.226060180664063 107.146 78.4245 263.883 -4.07267 19.6048 0.20733 -7.71003 9.87194 -3.52909 -2.54579 24.0446 8.79325 13.399 -65.805 18.0873 -99.27153 -0.532678 5.14525 -28.3547 40.1496 -18.7387 0.0 115.848 0.0 31.5798 -7.96901 9.93746 0.0 0.0 0.0 0.0 0.0 0.0 110.969 -1.51927 -15.7483 5.87205 41.1003 26.3869 0.0 104.259 0.0 -17.6141 6.48893 -5.48368 0.0 0.0 0.0 0.0 0.0 0.0 -64.1466 -69.3572 -60.6102 0.0 109.18 0.0 5.54228 -19.5248 -2.70852 0.0 -35.3466 0.0 -14.4489 -21.5131 -19.5111 0.0 130.683 0.0 6.74924 -17.760101 12.9931 0.0 -58.5609 0.0 
  3.398800048828125 5.026470031738281 5.270859985351563 106.707 78.2285 264.383 -4.69681 19.5333 0.413333 -8.04532 9.91376 -3.64441 -2.50749 24.213 8.91859 14.0109 -66.0411 18.2813 -99.11361 -0.0888228 5.66823 -29.2921 39.2574 -16.0744 0.0 113.51 0.0 31.4198 -9.25421 7.83835 0.0 0.0 0.0 0.0 0.0 0.0 112.1405 -1.91436 -17.6808 6.56243 39.173 25.3602 0.0 102.963 0.0 -17.234 7.24237 -5.58179 0.0 0.0 0.0 0.0 0.0 0.0 -62.8359 -68.6607 -58.9137 0.0 108.674 0.0 5.69465 -19.675499 -2.28403 0.0 -35.3164 0.0 -14.6203 -20.681 -18.8326 0.0 129.558 0.0 7.06817 -17.9179 13.8793 0.0 -59.1051 0.0 
